<?xml version="1.0" standalone="no"?>
<!DOCTYPE svg PUBLIC "-//W3C//DTD SVG 20010904//EN"
 "http://www.w3.org/TR/2001/REC-SVG-20010904/DTD/svg10.dtd">
<svg version="1.0" xmlns="http://www.w3.org/2000/svg"
 width="1000.000000pt" height="562.000000pt" viewBox="0 0 1000.000000 562.000000"
 preserveAspectRatio="xMidYMid meet">

<g transform="translate(0.000000,562.000000) scale(0.100000,-0.100000)"
fill="#000000" stroke="none">
<path d="M4960 5170 c-14 -5 -95 -31 -180 -59 -231 -74 -445 -153 -462 -170
-5 -4 27 -15 70 -24 108 -25 228 -59 434 -124 l177 -56 198 61 c212 66 343
103 436 123 31 7 57 15 57 19 0 15 -593 222 -670 234 -19 3 -46 1 -60 -4z"/>
<path d="M3760 4677 c-136 -73 -395 -235 -387 -243 1 -1 70 -21 152 -44 83
-22 213 -61 289 -86 77 -25 146 -46 155 -47 9 0 68 30 131 68 63 37 191 105
283 150 l169 82 -124 46 c-119 44 -482 157 -503 157 -5 0 -80 -38 -165 -83z"/>
<path d="M6030 4750 c-14 -5 -72 -23 -130 -41 -91 -27 -381 -124 -433 -145
-14 -5 2 -16 65 -44 115 -53 285 -142 399 -211 l96 -59 104 35 c57 20 185 58
284 86 99 27 189 54 200 58 17 7 -1 22 -110 93 -156 103 -402 238 -430 237
-11 0 -31 -4 -45 -9z"/>
<path d="M4875 4297 c-116 -62 -325 -187 -374 -225 l-23 -19 149 -75 c82 -41
195 -103 252 -137 56 -34 108 -64 115 -67 7 -3 62 25 122 61 60 36 176 100
259 142 l149 76 -27 21 c-71 57 -466 286 -492 286 -5 0 -64 -29 -130 -63z"/>
<path d="M2869 4013 c-294 -299 -507 -616 -673 -1006 -45 -106 -116 -300 -116
-318 0 -5 127 -9 298 -9 l298 0 28 73 c65 167 200 427 302 578 73 110 226 297
321 397 55 56 97 105 94 108 -3 3 -1 4 4 2 14 -4 157 124 147 133 -8 7 -337
114 -462 149 -41 12 -82 23 -90 26 -10 2 -65 -46 -151 -133z"/>
<path d="M6900 4124 c-110 -32 -452 -144 -466 -152 -6 -4 40 -53 105 -113 245
-223 432 -460 593 -749 63 -114 72 -133 153 -325 l42 -100 301 -3 301 -2 -35
102 c-135 388 -305 697 -563 1017 -76 96 -324 352 -338 350 -5 0 -46 -12 -93
-25z"/>
<path d="M4009 3663 c-190 -198 -335 -397 -453 -623 -58 -112 -132 -277 -150
-337 l-7 -23 315 0 315 0 44 88 c112 222 252 416 429 592 l93 92 -32 26 c-63
53 -436 272 -463 272 -4 0 -45 -39 -91 -87z"/>
<path d="M5802 3700 c-119 -63 -196 -109 -305 -183 l-87 -59 109 -114 c167
-174 315 -380 412 -577 l43 -87 313 0 c214 0 313 3 313 11 0 17 -85 220 -128
306 -84 165 -212 362 -321 493 -57 68 -242 260 -251 260 -3 0 -47 -23 -98 -50z"/>
<path d="M4942 3003 c-95 -131 -192 -291 -192 -318 0 -3 115 -5 255 -5 l255 0
-35 69 c-55 109 -203 321 -225 321 -4 0 -30 -30 -58 -67z"/>
<path d="M2072 1478 l3 -603 160 0 c191 0 225 11 263 85 21 43 22 54 22 326 0
274 -1 282 -23 325 -33 63 -77 82 -200 87 l-98 4 3 127 3 126 100 0 c55 1 117
2 138 3 l37 2 0 60 0 60 -205 0 -205 0 2 -602z m308 73 c6 -12 10 -116 10
-270 0 -214 -2 -252 -16 -265 -11 -12 -36 -16 -95 -16 l-79 0 0 278 c0 153 3
282 7 285 3 4 41 7 84 7 67 0 80 -3 89 -19z"/>
<path d="M2750 1475 l0 -605 60 0 60 0 0 281 0 282 102 103 c56 57 103 102
105 100 2 -2 4 -175 3 -385 l0 -381 65 0 65 0 0 605 0 605 -65 0 -65 0 0 -137
-1 -138 -94 -98 c-52 -55 -99 -96 -104 -92 -7 4 -10 86 -8 235 l2 230 -62 0
-63 0 0 -605z"/>
<path d="M3470 1475 l0 -605 60 0 60 0 0 195 0 195 93 0 c108 0 161 19 198 71
24 34 24 37 27 319 3 240 1 290 -13 326 -33 88 -77 104 -276 104 l-149 0 0
-605z m297 460 c19 -27 19 -503 -1 -530 -11 -16 -27 -19 -92 -19 l-79 -1 -3
275 c-1 151 0 280 2 286 3 7 32 11 82 9 62 -2 80 -6 91 -20z"/>
<path d="M4140 1475 l0 -605 65 0 65 0 0 288 0 287 98 98 c54 54 101 95 105
91 4 -4 7 -176 6 -383 l0 -376 61 -3 60 -3 0 606 0 605 -62 0 -63 0 2 -131 2
-131 -62 -66 c-34 -35 -79 -82 -99 -103 -20 -22 -39 -39 -42 -39 -3 0 -6 106
-6 235 l0 235 -65 0 -65 0 0 -605z"/>
<path d="M4860 1475 l0 -605 62 0 61 0 -6 550 -6 550 24 0 c13 0 25 -7 27 -17
3 -10 33 -190 69 -401 l63 -383 110 3 110 3 28 170 c15 94 43 268 63 388 19
121 37 223 41 228 3 5 17 9 31 9 l26 0 -6 -137 c-4 -76 -10 -324 -13 -550 l-7
-413 66 0 67 0 0 605 0 605 -134 0 -134 0 -12 -67 c-6 -38 -27 -171 -45 -298
-19 -126 -41 -273 -49 -325 -9 -52 -16 -99 -16 -103 0 -5 -8 -7 -17 -5 -19 3
-17 -5 -94 505 l-44 293 -132 0 -133 0 0 -605z"/>
<path d="M6006 1953 c-8 -166 -13 -288 -26 -618 -13 -320 -17 -335 -87 -335
l-43 0 0 -145 0 -145 49 0 48 0 7 46 c3 26 6 62 6 80 l0 34 215 0 c245 0 217
12 233 -100 l7 -55 48 -3 47 -3 0 145 0 146 -50 0 -50 0 0 540 0 540 -199 0
-199 0 -6 -127z m272 -476 l2 -477 -106 0 c-97 0 -106 1 -99 17 18 43 24 101
30 298 9 315 24 626 31 636 3 5 35 8 72 6 l67 -3 3 -477z"/>
<path d="M6680 1475 l0 -605 65 0 65 0 0 288 0 287 98 98 c53 53 101 97 105
97 4 0 7 -173 7 -385 l0 -386 63 3 62 3 2 603 2 602 -64 0 -65 0 0 -134 0
-133 -97 -102 c-54 -56 -101 -101 -105 -101 -5 0 -8 106 -8 235 l0 235 -65 0
-65 0 0 -605z"/>
<path d="M7400 1475 l0 -605 65 0 65 0 0 355 0 355 58 0 59 0 21 -97 c12 -54
44 -204 72 -333 28 -129 53 -245 55 -257 5 -21 11 -23 70 -23 63 0 65 1 60 23
-10 44 -96 445 -127 589 l-30 148 75 225 75 225 -68 0 -68 0 -67 -200 -68
-201 -56 3 -56 3 -3 198 -2 197 -65 0 -65 0 0 -605z"/>
</g>
</svg>
